<svg width="70" height="34" viewBox="0 0 70 34" fill="none" xmlns="http://www.w3.org/2000/svg">
<path d="M21.665 27.235H30.17V28.25H21.665V27.235ZM28.105 6.235H27.755L29.75 4.03L33.74 7.18C33.495 7.495 33.005 7.775 32.27 7.95V30.315C32.235 30.7 30.31 31.785 28.77 31.785H28.105V6.235ZM1.435 8.055H14.91V9.035H1.75L1.435 8.055ZM6.16 0.564999L11.55 1.055C11.445 1.58 11.13 1.895 10.255 2.035C10.08 12.78 10.395 24.785 1.015 33.15L0.525 32.66C6.615 23.105 6.16 11.52 6.16 0.564999ZM13.44 8.055H13.02L15.19 5.815L18.9 9.035C18.62 9.385 18.165 9.595 17.395 9.735C17.115 23.77 16.625 28.88 14.7 30.805C13.545 32.03 11.97 32.555 10.08 32.555C10.08 31.19 9.975 30.245 9.555 29.685C9.03 29.055 8.05 28.6 6.685 28.285L6.72 27.795C7.84 27.9 9.66 28.04 10.36 28.04C10.955 28.04 11.27 27.9 11.585 27.585C12.81 26.465 13.195 20.375 13.44 8.055ZM19.845 6.235V4.485L24.01 6.235H30.38V7.25H23.835V30.98C23.835 31.47 22.295 32.415 20.545 32.415H19.845V6.235ZM50.4 17.785H65.205V18.8H50.4V17.785ZM50.435 28.81H65.24V29.825H50.435V28.81ZM55.475 0.284999L60.515 0.774999C60.445 1.23 60.2 1.545 59.395 1.685V29.3H55.475V0.284999ZM39.27 0.879999C49.105 1.3 46.585 8.615 42.7 6.48C42.105 4.555 40.425 2.42 38.99 1.16L39.27 0.879999ZM36.225 8.685C45.71 9.105 43.05 16.21 39.34 13.97C38.85 12.15 37.345 10.12 35.98 8.93L36.225 8.685ZM38.15 22.79C38.71 22.79 38.85 22.79 39.235 22.09C40.075 20.795 40.075 20.795 46.55 7.425L47.11 7.565C45.745 11.625 43.26 19.115 42.77 20.9C42.455 22.02 42.21 23.28 42.245 24.155C42.315 26.01 43.715 27.2 43.61 30.21C43.575 31.96 42.35 33.115 40.635 33.115C39.83 33.115 38.99 32.59 38.71 31.33C39.375 27.725 39.2 24.575 38.395 23.98C37.87 23.665 37.31 23.525 36.54 23.455V22.79C36.54 22.79 37.8 22.79 38.15 22.79ZM47.67 7.775V6.2L51.765 7.775H63.595L65.485 5.535L69.09 8.405C68.81 8.72 68.39 9 67.585 9.14V31.365C67.585 31.61 66.29 32.45 64.435 32.45H63.77V8.755H51.345V31.82C51.345 32.1 50.225 32.87 48.335 32.87H47.67V7.775Z" fill="#AD122C"/>
</svg>
