<svg width="80" height="75" viewBox="0 0 80 75" fill="none" xmlns="http://www.w3.org/2000/svg">
<path d="M20.75 62.1C20 57.8 16.95 52.4 11.15 48.05C8.3 45.9 5.4 44.5 2.55 43.9V41.8C8.2 40.45 13.75 36.65 17.3 31.5C19.1 28.9 20.25 26.35 20.75 23.7H22.85C23.7 28.75 27.6 34.35 32.9 38.1C35.5 39.95 38.2 41.2 40.95 41.8V43.9C35.4 45.05 28.95 50 25.75 55.05C24.15 57.6 23.2 59.95 22.85 62.1H20.75Z" fill="#AD122C"/>
<path d="M63.45 33.26C63 30.68 61.17 27.44 57.69 24.83C55.98 23.54 54.24 22.7 52.53 22.34V21.08C55.92 20.27 59.25 17.99 61.38 14.9C62.46 13.34 63.15 11.81 63.45 10.22H64.71C65.22 13.25 67.56 16.61 70.74 18.86C72.3 19.97 73.92 20.72 75.57 21.08V22.34C72.24 23.03 68.37 26 66.45 29.03C65.49 30.56 64.92 31.97 64.71 33.26H63.45Z" fill="#AD122C"/>
</svg>
