<?xml version="1.0" encoding="UTF-8" standalone="no"?>
<svg
   width="80"
   height="75"
   viewBox="0 0 80 75"
   fill="none"
   version="1.1"
   id="svg2"
   sodipodi:docname="stars.svg"
   inkscape:version="1.4 (86a8ad7, 2024-10-11)"
   xmlns:inkscape="http://www.inkscape.org/namespaces/inkscape"
   xmlns:sodipodi="http://sodipodi.sourceforge.net/DTD/sodipodi-0.dtd"
   xmlns:xlink="http://www.w3.org/1999/xlink"
   xmlns="http://www.w3.org/2000/svg"
   xmlns:svg="http://www.w3.org/2000/svg">
  <defs
     id="defs2">
    <linearGradient
       id="linearGradient5"
       inkscape:collect="always">
      <stop
         style="stop-color:#b0183d;stop-opacity:1;"
         offset="0.0194166"
         id="stop8" />
      <stop
         style="stop-color:#ec2a2a;stop-opacity:1;"
         offset="0.49718583"
         id="stop6" />
      <stop
         style="stop-color:#fff2f2;stop-opacity:1;"
         offset="1"
         id="stop7" />
    </linearGradient>
    <linearGradient
       id="linearGradient2"
       inkscape:collect="always">
      <stop
         style="stop-color:#b0183d;stop-opacity:1;"
         offset="0.30061638"
         id="stop3" />
      <stop
         style="stop-color:#ec2a2a;stop-opacity:1;"
         offset="0.58653343"
         id="stop5" />
      <stop
         style="stop-color:#fff2f2;stop-opacity:1;"
         offset="0.94943821"
         id="stop4" />
    </linearGradient>
    <linearGradient
       inkscape:collect="always"
       xlink:href="#linearGradient2"
       id="linearGradient3"
       x1="17.292511"
       y1="23.700001"
       x2="29.620693"
       y2="62.099998"
       gradientUnits="userSpaceOnUse" />
    <linearGradient
       inkscape:collect="always"
       xlink:href="#linearGradient5"
       id="linearGradient7"
       x1="57.978397"
       y1="10.22"
       x2="64.512466"
       y2="33.259998"
       gradientUnits="userSpaceOnUse" />
  </defs>
  <sodipodi:namedview
     id="namedview2"
     pagecolor="#ffffff"
     bordercolor="#000000"
     borderopacity="0.25"
     inkscape:showpageshadow="2"
     inkscape:pageopacity="0.0"
     inkscape:pagecheckerboard="0"
     inkscape:deskcolor="#d1d1d1"
     inkscape:zoom="6.6845161"
     inkscape:cx="20.345527"
     inkscape:cy="5.1611814"
     inkscape:window-width="1280"
     inkscape:window-height="953"
     inkscape:window-x="-8"
     inkscape:window-y="-8"
     inkscape:window-maximized="1"
     inkscape:current-layer="svg2" />
  <path
     d="M20.75 62.1C20 57.8 16.95 52.4 11.15 48.05C8.3 45.9 5.4 44.5 2.55 43.9V41.8C8.2 40.45 13.75 36.65 17.3 31.5C19.1 28.9 20.25 26.35 20.75 23.7H22.85C23.7 28.75 27.6 34.35 32.9 38.1C35.5 39.95 38.2 41.2 40.95 41.8V43.9C35.4 45.05 28.95 50 25.75 55.05C24.15 57.6 23.2 59.95 22.85 62.1H20.75Z"
     fill="#ED2B2A"
     id="path1"
     style="fill-opacity:1;fill:url(#linearGradient3)" />
  <path
     d="M 59.45,33.26 C 59,30.68 57.17,27.44 53.69,24.83 51.98,23.54 50.24,22.7 48.53,22.34 v -1.26 c 3.39,-0.81 6.72,-3.09 8.85,-6.18 1.08,-1.56 1.77,-3.09 2.07,-4.68 h 1.26 c 0.51,3.03 2.85,6.39 6.03,8.64 1.56,1.11 3.18,1.86 4.83,2.22 v 1.26 c -3.33,0.69 -7.2,3.66 -9.12,6.69 -0.96,1.53 -1.53,2.94 -1.74,4.23 z"
     fill="#ed2b2a"
     id="path2"
     sodipodi:nodetypes="ccccccccccccc"
     style="fill:url(#linearGradient7);fill-opacity:1" />
</svg>
